<svg xmlns="http://www.w3.org/2000/svg" viewBox="0 0 100 40" fill="black"><path d="M81.774 6.104h-4.111v4.112h4.11V6.104Z"></path><path fill-rule="evenodd" d="M65.769 16.66h-3.61v6.681c0 .557.138.964.416 1.22.279.258.686.408 1.22.45.535.021 1.2.012 1.993-.031v3.758c-2.805.321-4.807.063-6.006-.77-1.178-.856-1.766-2.398-1.766-4.625v-6.68h-2.794v-3.985h2.794V9.434l4.143-1.252v4.498h6.404V9.436l4.143-1.252v4.498h3.629v3.984h-3.63v6.68c0 .558.139.965.417 1.22.279.259.686.408 1.22.451.535.02 1.2.012 1.99-.032v3.759c-2.804.32-4.805.063-6.005-.77-1.177-.856-1.766-2.398-1.766-4.625v-6.681h-2.794l.002-.008Z" clip-rule="evenodd"></path><path d="M81.793 12.674H77.65v16.062h4.143V12.674Z"></path><path fill-rule="evenodd" d="M91.553 12.257a8.448 8.448 0 0 0-8.446 8.449 8.448 8.448 0 1 0 16.893 0 8.446 8.446 0 0 0-8.447-8.449Zm-.014 12.915a4.482 4.482 0 0 1 0-8.962 4.48 4.48 0 0 1 4.479 4.48 4.48 4.48 0 0 1-4.48 4.482ZM49.791 12.642v.892a8.448 8.448 0 0 0-12.909 7.172 8.448 8.448 0 0 0 12.91 7.172v.891h4.11V12.642h-4.11Zm-4.477 12.53a4.482 4.482 0 0 1 0-8.962 4.462 4.462 0 0 1 4.477 4.406v.148a4.478 4.478 0 0 1-4.477 4.406v.002Z" clip-rule="evenodd"></path><path d="m29.754 22.362-2.512-4.02s-.009-.017-.015-.024l-.198-.316a2.03 2.03 0 0 0-1.726-.96l-4.046-.014-.282.453-4.835 7.736-.267.428L17.9 28.88c.374.602 1.02.961 1.732.961h5.67c.699 0 1.36-.368 1.73-.959l.2-.32s.008-.008.01-.012l2.515-4.025a2.045 2.045 0 0 0 0-2.164h-.002Zm-.766 1.683-2.516 4.025c-.01.02-.024.034-.035.05a.34.34 0 0 1-.544-.05l-2.515-4.027a1.116 1.116 0 0 1-.13-.29 1.127 1.127 0 0 1 .127-.908l2.512-4.02.006-.01c.06-.09.135-.131.2-.144.026-.008.049-.01.067-.013h.028c.058 0 .202.018.292.164l2.511 4.02c.23.366.23.837 0 1.203h-.003ZM22.322 12.636a2.053 2.053 0 0 0 0-2.164l-2.512-4.02-.21-.338a2.031 2.031 0 0 0-1.732-.959h-5.67c-.707 0-1.354.36-1.731.96L.314 22.366a2.03 2.03 0 0 0-.002 2.162l2.723 4.359a2.026 2.026 0 0 0 1.73.959h5.67c.712 0 1.358-.36 1.732-.96l.208-.33v-.004l.003-.007 2.024-3.237 5.999-9.6 1.917-3.07.004-.001Zm-.593-1.082c0 .207-.058.416-.175.601l-9.946 15.918a.34.34 0 0 1-.291.16.342.342 0 0 1-.292-.16l-2.513-4.027a1.141 1.141 0 0 1 0-1.202l9.945-15.913a.339.339 0 0 1 .292-.163c.058 0 .202.017.293.164l2.512 4.02c.117.185.175.394.175.602Z"></path></svg>