<?xml version="1.0" encoding="UTF-8"?>
<svg width="112px" height="27px" viewBox="0 0 112 27" version="1.1" xmlns="http://www.w3.org/2000/svg" xmlns:xlink="http://www.w3.org/1999/xlink">
    <!-- Generator: Sketch 51.3 (57544) - http://www.bohemiancoding.com/sketch -->
    <title>logo</title>
    <desc>Created with Sketch.</desc>
    <defs></defs>
    <g id="Symbols" stroke="none" stroke-width="1" fill="none" fill-rule="evenodd">
        <g id="Footer" transform="translate(-161.000000, -165.000000)" fill="#000">
            <g id="logo">
                <g transform="translate(161.000000, 165.000000)">
                    <path d="M47.9688544,12.8254178 C48.2868717,11.3512624 49.3141918,10.6017035 50.664492,10.6017035 C52.0031687,10.6017035 52.9820351,11.3848657 53.294306,12.8254178 L47.9688544,12.8254178 Z M50.7378907,8.04785408 C47.2997773,8.04785408 45.1612903,10.6722018 45.1612903,13.8822067 C45.1612903,17.2067371 47.446444,19.6725322 50.8427646,19.6725322 C53.1851222,19.6725322 54.6059479,18.6376883 55.4852952,17.3345667 L53.2987464,16.0000364 C52.7490401,16.7175007 51.8694316,17.0966006 50.9266114,17.0966006 C49.3843254,17.0966006 48.35152,16.4067047 47.999546,15.0270499 L53.7707442,15.0270499 C53.7702218,15.028833 53.76983,15.030616 53.7693076,15.0325362 L55.8731849,15.0443316 C55.9529831,14.681279 56,14.3061567 56,13.8822067 C56,11.0861394 54.1970311,8.04785408 50.7378907,8.04785408 Z" id="Fill-4"></path>
                    <path d="M37.483871,17.0501363 C35.5854456,17.0501363 34.4442027,15.7041395 34.4442027,14.0438909 C34.4442027,12.3836422 35.6073215,11.0377783 37.483871,11.0377783 C39.3604204,11.0377783 40.5235392,12.3836422 40.5235392,14.0438909 C40.5235392,15.7041395 39.3822964,17.0501363 37.483871,17.0501363 Z M40.5235392,9.94533466 C39.7101627,8.996735 38.5552474,8.41524952 37.1216867,8.41524952 C33.9174016,8.41524952 31.6129032,10.9353741 31.6129032,14.0438909 C31.6129032,17.1525404 33.8955256,19.6725322 37.1216867,19.6725322 C38.5552474,19.6725322 39.7101627,19.0910467 40.5235392,18.142447 L40.5235392,19.3953371 L43.3548387,19.3953371 L43.3548387,4.47103004 L40.5235392,4.47103004 L40.5235392,9.94533466 Z" id="Fill-6"></path>
                    <path d="M64.4775846,13.6274775 C65.2693032,14.1628018 65.7710929,14.965516 65.7710929,16.0247341 C65.7710929,18.1654869 64.2802607,19.65076 61.4929591,19.65076 C58.8698698,19.65076 57.4632974,18.3498703 56.9032258,17.0360534 L59.3108201,15.6752901 C59.3108201,15.6752901 59.6349375,17.0951105 61.4497524,17.0951105 C62.5732606,17.0951105 62.9190486,16.6144889 62.9190486,16.1900669 C62.9190486,15.9934366 62.8541712,15.6316096 62.0547805,15.3257101 C60.4491343,14.7115976 57.34458,14.4360431 57.34458,11.6342315 C57.34458,9.34080114 59.2019286,8.11761105 61.4929591,8.11761105 C63.6352564,8.11761105 65.0114092,9.40775069 65.5337926,10.4115857 L63.1782886,11.7435008 C63.1782886,11.7435008 62.7245512,10.6294439 61.5146297,10.6294439 C60.3047083,10.6294439 60.1966243,11.3066958 60.1966243,11.50319 C60.1966243,12.0766157 60.8005755,12.3120277 62.0979871,12.6828357 C62.8661507,12.9023268 63.6551772,13.1016786 64.4800074,13.6254364 C64.4791998,13.6261168 64.4783922,13.6267971 64.4775846,13.6274775 Z M112,11.1318786 L109.558486,11.1318786 L109.558486,15.6751949 C109.558486,17.0951513 110.984441,16.7892518 112,16.7892518 L112,19.3449012 C112,19.3449012 111.465099,19.4322622 110.530838,19.4322622 C108.456649,19.4322622 106.771319,18.8207352 106.771319,15.6751949 L106.771319,11.1318786 L104.891493,11.1318786 L104.891493,8.4232793 L106.771319,8.4232793 L106.771319,5.36523605 L109.558486,5.36523605 L109.558486,8.4232793 L112,8.4232793 L112,11.1318786 Z M72.7002186,16.8984802 C73.8568383,16.8984802 74.7461421,16.3407034 75.1955722,15.4257262 L77.6116464,16.8262237 C76.665003,18.5047252 74.9010669,19.6725322 72.7002186,19.6725322 C69.3621328,19.6725322 67.0285686,17.0907561 67.0285686,13.9060258 C67.0285686,10.7211594 69.3836688,8.13938327 72.7002186,8.13938327 C74.8687629,8.13938327 76.6261035,9.2881396 77.5829766,10.9443246 L75.1722864,12.3768 C74.7141072,11.4737975 73.8318027,10.9134352 72.7002186,10.9134352 C71.0135431,10.9134352 69.8158702,12.2532427 69.8158702,13.9060258 C69.8158702,15.5586727 71.0025058,16.8984802 72.7002186,16.8984802 Z" id="Combined-Shape"></path>
                    <path d="M98.2102099,17.3818501 C96.379715,17.3818501 95.2793087,16.000362 95.2793087,14.2963358 C95.2793087,12.5923097 96.4008082,11.2109579 98.2102099,11.2109579 C100.01948,11.2109579 101.141111,12.5923097 101.141111,14.2963358 C101.141111,16.000362 100.040705,17.3818501 98.2102099,17.3818501 M98.5594344,8.51927818 C101.649062,8.51927818 103.870968,11.1058536 103.870968,14.2963358 C103.870968,17.4869544 101.670155,20.0733935 98.5594344,20.0733935 C97.1771701,20.0733935 96.0635805,19.4765754 95.2793087,18.502963 L95.2793087,24.1435622 L92.5493203,24.1435622 L92.5493203,8.82573025 L95.2793087,8.82573025 L95.2793087,10.0897087 C96.0635805,9.11609631 97.1771701,8.51927818 98.5594344,8.51927818 Z M87.3012379,19.788862 L87.3012379,8.84751452 L90.0310945,8.84751452 L90.0310945,19.788862 L87.3012379,19.788862 Z M82.2137276,10.7164904 C82.7406623,9.39062174 83.813911,8.63226193 85.4303099,8.62885388 L85.4303099,11.7799391 C83.5350852,11.594541 82.1660042,12.5689713 82.2159687,14.8707699 C82.2151777,14.869134 82.2145186,14.8673618 82.2137276,14.8655896 L82.2137276,19.788862 L79.483871,19.788862 L79.483871,8.84765084 L82.2137276,8.84765084 L82.2137276,10.7164904 Z M87.3012379,7.38736858 L87.3012379,4.47103004 L90.1211361,4.47103004 L90.1211361,7.38736858 L87.3012379,7.38736858 Z" id="Combined-Shape"></path>
                    <g id="D">
                        <path d="M1.32827324e-05,24.4208195 C1.32827324e-05,25.8798434 0.941891841,26.8261002 2.39382732,26.8261002 L9.38798292,26.8262336 C13.5603548,26.8262336 16.9734858,25.4076492 19.2939791,22.9242923 L1.32827324e-05,22.9242923 L1.32827324e-05,24.4208195 Z M9.38798292,0.133516969 L2.39382732,0.133383505 C0.941891841,0.133383505 1.32827324e-05,1.07977377 1.32827324e-05,2.53879767 L1.32827324e-05,4.03532483 L19.2939791,4.03532483 C16.9734858,1.55196793 13.5603548,0.133516969 9.38798292,0.133516969 Z M15.491797,17.283187 C15.491797,18.463539 16.2570152,19.229353 17.4367875,19.229353 L21.6277552,19.229353 C22.1028786,18.0447302 22.4220626,16.7423926 22.5704307,15.3370211 L17.4367875,15.3370211 C16.2570152,15.3370211 15.491797,16.1027016 15.491797,17.283187 Z M9.68272676,9.68603948 C9.68272676,10.8665249 10.447945,11.6322055 11.6277173,11.6322055 L22.5704307,11.6322055 C22.4220626,10.2268339 22.1028786,8.92449628 21.6277552,7.73987351 L11.6277173,7.73987351 C10.447945,7.73987351 9.68272676,8.50555409 9.68272676,9.68603948 Z M11.626389,17.283187 C11.626389,16.1027016 10.8611708,15.3370211 9.68139848,15.3370211 L1.32827324e-05,15.3370211 L1.32827324e-05,19.229353 L9.68139848,19.229353 C10.8611708,19.229353 11.626389,18.4636724 11.626389,17.283187 Z M5.81731879,9.68603948 C5.81731879,8.50555409 5.05210057,7.73987351 3.87232827,7.73987351 L1.32827324e-05,7.73987351 L1.32827324e-05,11.6322055 L3.87232827,11.6322055 C5.05210057,11.6322055 5.81731879,10.8665249 5.81731879,9.68603948 Z"></path>
                    </g>
                </g>
            </g>
        </g>
    </g>
</svg>