<svg width="134" height="34" viewBox="0 0 134 34" fill="none" xmlns="http://www.w3.org/2000/svg">
<g clip-path="url(#clip0_0_21)">
<path d="M45.6459 21.9111V12.0889C45.6459 11.4844 46.143 10.9933 46.7547 10.9933C47.3665 10.9933 47.8636 11.4844 47.8636 12.0889V21.9111C47.8636 22.5156 47.3665 23.0067 46.7547 23.0067C46.1812 23.0067 45.6459 22.5156 45.6459 21.9111ZM58.3399 22.3267L53.5223 14.7333V21.9111C53.5223 22.5156 53.0252 23.0067 52.4135 23.0067C51.8017 23.0067 51.3047 22.5156 51.3047 21.9111V12.3911C51.3047 11.5978 51.9547 10.9178 52.7958 10.9178H52.8723C53.3693 10.9178 53.8664 11.1822 54.134 11.5978L58.9134 19.0778V12.0133C58.9134 11.4089 59.4104 10.9178 60.0222 10.9178C60.6339 10.9178 61.131 11.4089 61.131 12.0133V21.5333C61.131 22.3267 60.481 23.0067 59.6398 23.0067C59.1045 23.0067 58.6075 22.78 58.3399 22.3267ZM68.8544 13.0333V22.0244C68.8544 22.5911 68.3956 23.0444 67.8221 23.0444H67.6691C67.0956 23.0444 66.6368 22.5911 66.6368 22.0244V13.0333H64.0751C63.5015 13.0333 63.0427 12.58 63.0427 12.0133C63.0427 11.4467 63.5015 10.9933 64.0751 10.9933H71.4543C72.0279 10.9933 72.4867 11.4467 72.4867 12.0133C72.4867 12.58 72.0279 13.0333 71.4543 13.0333H68.8544ZM74.2455 22.0244V11.9378C74.2455 11.4089 74.7043 10.9556 75.2396 10.9556H81.9306C82.4659 10.9556 82.9247 11.4089 82.9247 11.9378C82.9247 12.4667 82.4659 12.92 81.9306 12.92H76.4631V15.7156H81.1659C81.7012 15.7156 82.16 16.1689 82.16 16.6978C82.16 17.2267 81.7012 17.68 81.1659 17.68H76.4631V20.9667H81.9306C82.4659 20.9667 82.9247 21.42 82.9247 21.9489C82.9247 22.4778 82.4659 22.9311 81.9306 22.9311H75.2396C74.7043 23.0067 74.2455 22.5911 74.2455 22.0244ZM92.2922 22.3644L90.5334 18.4733H87.8188V21.9489C87.8188 22.5533 87.3217 23.0444 86.71 23.0444H86.6717C86.06 23.0444 85.5629 22.5533 85.5629 21.9489V12.0889C85.5629 11.4844 86.06 10.9933 86.6717 10.9933H90.7246C93.6304 10.9933 94.9687 12.8067 94.9687 14.7333C94.9687 16.3578 94.0893 17.6044 92.7511 18.0956L94.2804 21.4956C94.5863 22.2133 94.0893 23.0067 93.2863 23.0067C92.8658 23.0067 92.4452 22.78 92.2922 22.3644ZM90.7629 12.8822H87.857V16.4711H90.8011C92.0628 16.4711 92.7893 15.8289 92.7893 14.6956C92.7511 13.7511 92.0246 12.8822 90.7629 12.8822ZM105.521 21.7978C104.604 22.7044 103.342 23.2333 102.042 23.2333C100.742 23.2333 99.5186 22.8178 98.601 21.8733C97.2627 20.5511 97.0716 18.9644 97.0716 17C97.0716 15.0356 97.2627 13.4111 98.601 12.1267C99.5186 11.22 100.742 10.7667 102.042 10.7667C103.342 10.7667 104.604 11.2578 105.521 12.1644C105.827 12.5044 106.095 12.8444 106.286 13.26C106.63 13.9778 106.095 14.7711 105.292 14.7711C104.833 14.7711 104.451 14.5067 104.26 14.0911C104.183 13.8644 104.03 13.6756 103.877 13.4867C103.495 12.9956 102.807 12.7311 102.042 12.7311C101.354 12.7311 100.666 13.0333 100.169 13.5244C99.3274 14.3933 99.3274 15.8667 99.3274 17C99.3274 18.0956 99.3274 19.6067 100.169 20.4756C100.666 20.9667 101.354 21.2689 102.042 21.2689C102.807 21.2689 103.495 21.0044 103.877 20.5133C104.03 20.3244 104.183 20.0978 104.26 19.8711C104.413 19.4556 104.833 19.1911 105.292 19.1911C106.095 19.1911 106.63 19.9844 106.286 20.7022C106.095 21.1178 105.827 21.4956 105.521 21.7978ZM117.412 21.8733C116.495 22.78 115.195 23.2333 113.895 23.2333C112.595 23.2333 111.333 22.78 110.377 21.8733C109.039 20.5511 108.848 18.9644 108.848 17C108.848 15.0356 109.077 13.4111 110.377 12.1267C111.295 11.22 112.595 10.7667 113.895 10.7667C115.195 10.7667 116.457 11.22 117.412 12.1267C118.751 13.4489 118.942 15.0356 118.942 17C118.98 18.9644 118.751 20.5889 117.412 21.8733ZM115.845 13.5622C115.348 13.0711 114.621 12.7689 113.933 12.7689C113.245 12.7689 112.48 13.0711 112.021 13.5622C111.18 14.4311 111.142 15.9044 111.142 17.0378C111.142 18.1333 111.18 19.6067 112.021 20.4756C112.518 20.9667 113.245 21.2689 113.933 21.2689C114.621 21.2689 115.386 20.9667 115.845 20.4756C116.686 19.6067 116.724 18.1333 116.724 17.0378C116.724 15.9044 116.686 14.3933 115.845 13.5622ZM131.827 21.9489V14.4311L128.959 22.1C128.806 22.5533 128.348 22.8556 127.85 22.8556C127.353 22.8556 126.933 22.5533 126.742 22.1L123.874 14.3178V21.9489C123.874 22.5533 123.377 23.0067 122.804 23.0067C122.192 23.0067 121.733 22.5156 121.733 21.9489V12.6178C121.733 11.7111 122.498 10.9556 123.415 10.9556H123.568C124.256 10.9556 124.906 11.3711 125.136 12.0511L127.927 19.5311L130.756 12.0511C130.986 11.4089 131.636 10.9556 132.324 10.9556C133.242 10.9556 134.006 11.7111 134.006 12.6178V21.9489C134.006 22.5533 133.509 23.0067 132.936 23.0067C132.286 23.0067 131.827 22.5533 131.827 21.9489ZM30.1609 0H4.3525C1.94372 0 0.0319824 1.88889 0.0319824 4.23111V29.7311C0.0319824 32.1111 1.94372 34 4.3525 34H30.1609C32.5315 34 34.4432 32.1111 34.4432 29.7689V4.26889C34.4432 1.88889 32.5315 0 30.1609 0ZM21.8257 6.23333C21.8257 5.59111 22.3228 5.1 22.9728 5.1C23.6228 5.1 24.1198 5.59111 24.1198 6.23333V21.3822C24.1198 22.0244 23.6228 22.5156 22.9728 22.5156C22.3228 22.5156 21.8257 22.0244 21.8257 21.3822V6.23333ZM16.0905 5.66667C16.0905 5.02444 16.5876 4.53333 17.2376 4.53333C17.8876 4.53333 18.3846 5.02444 18.3846 5.66667V22.1C18.3846 22.7422 17.8876 23.2333 17.2376 23.2333C16.5876 23.2333 16.0905 22.7422 16.0905 22.1V5.66667ZM10.3553 6.23333C10.3553 5.59111 10.8524 5.1 11.5024 5.1C12.1524 5.1 12.6494 5.59111 12.6494 6.23333V21.3822C12.6494 22.0244 12.1524 22.5156 11.5024 22.5156C10.8524 22.5156 10.3553 22.0244 10.3553 21.3822V6.23333ZM4.62014 8.5C4.62014 7.85778 5.11719 7.36667 5.76718 7.36667C6.41717 7.36667 6.91422 7.85778 6.91422 8.5V18.7C6.91422 19.3422 6.41717 19.8333 5.76718 19.8333C5.11719 19.8333 4.62014 19.3422 4.62014 18.7V8.5ZM29.4727 25.8022C29.2815 25.9533 25.0375 29.4667 17.2376 29.4667C9.43771 29.4667 5.19366 25.9533 5.00249 25.8022C4.50544 25.3867 4.4672 24.6689 4.88779 24.2156C5.30837 23.7244 6.03483 23.6867 6.49364 24.1022C6.57011 24.1022 10.3553 27.2 17.2376 27.2C24.1963 27.2 27.9433 24.1022 27.9433 24.0644C28.4403 23.6489 29.1668 23.7244 29.5491 24.1778C30.008 24.6689 29.9315 25.3867 29.4727 25.8022ZM29.855 18.7C29.855 19.3422 29.358 19.8333 28.708 19.8333C28.058 19.8333 27.5609 19.3422 27.5609 18.7V8.5C27.5609 7.85778 28.058 7.36667 28.708 7.36667C29.358 7.36667 29.855 7.85778 29.855 8.5V18.7Z" fill="black"/>
</g>
<defs>
<clipPath id="clip0_0_21">
<rect width="134" height="34" fill="white"/>
</clipPath>
</defs>
</svg>
