<svg width="140" height="56" viewBox="0 0 140 56" fill="none" xmlns="http://www.w3.org/2000/svg">
<path d="M64.6771 38.4713V25.8927H64.8989L73.9606 38.4713H76.8121V19.9995H73.6437V32.5464H73.4219L64.3602 19.9995H61.5087V38.4713H64.6771ZM85.7788 38.7565C89.9611 38.7565 92.5275 36.0317 92.5275 31.4691C92.5275 26.9383 89.9611 24.1818 85.7788 24.1818C81.6281 24.1818 79.03 26.9383 79.03 31.4691C79.0617 36.0317 81.5964 38.7565 85.7788 38.7565ZM85.7788 36.095C83.5609 36.095 82.2935 34.4158 82.2935 31.4691C82.2935 28.5542 83.5609 26.8432 85.7788 26.8432C87.9967 26.8432 89.264 28.5542 89.264 31.4691C89.264 34.4158 87.9967 36.095 85.7788 36.095ZM95.4108 21.045V24.562H93.1929V27.0967H95.4108V34.7326C95.4108 37.4575 96.6781 38.5347 99.9099 38.5347C100.512 38.5347 101.114 38.4713 101.589 38.3763V35.9049C101.209 35.9366 100.956 35.9683 100.512 35.9683C99.1812 35.9683 98.5792 35.3663 98.5792 33.9722V27.0967H101.589V24.562H98.5792V21.045H95.4108ZM103.49 38.4713H106.659V24.4669H103.49V38.4713ZM105.074 22.154C106.12 22.154 106.976 21.2985 106.976 20.2529C106.976 19.1757 106.12 18.3202 105.074 18.3202C104.029 18.3202 103.173 19.1757 103.173 20.2529C103.173 21.2985 104.029 22.154 105.074 22.154ZM115.34 38.7565C119.522 38.7565 122.089 36.0317 122.089 31.4691C122.089 26.9383 119.522 24.1818 115.34 24.1818C111.19 24.1818 108.591 26.9383 108.591 31.4691C108.591 36.0317 111.126 38.7565 115.34 38.7565ZM115.34 36.095C113.122 36.095 111.855 34.4158 111.855 31.4691C111.855 28.5542 113.122 26.8432 115.34 26.8432C117.526 26.8432 118.825 28.5542 118.825 31.4691C118.794 34.4158 117.526 36.095 115.34 36.095ZM123.958 38.4713H127.127V30.3285C127.127 28.269 128.331 26.97 130.2 26.97C132.133 26.97 133.02 28.0472 133.02 30.1701V38.4713H136.188V29.4097C136.188 26.0511 134.477 24.1818 131.372 24.1818C129.281 24.1818 127.887 25.1323 127.222 26.7165H127V24.4669H123.927C123.958 24.4669 123.958 38.4713 123.958 38.4713Z" fill="black"/>
<path fill-rule="evenodd" clip-rule="evenodd" d="M12.9675 14.2971C14.4567 15.5011 14.9953 15.406 17.7835 15.2159L44.0497 13.6317C44.62 13.6317 44.1448 13.0614 43.9547 12.998L39.5822 9.86128C38.7584 9.22759 37.6178 8.46717 35.495 8.65727L10.0842 10.5266C9.16539 10.6217 8.97528 11.097 9.35549 11.4455L12.9675 14.2971ZM14.5517 20.4121V48.0407C14.5517 49.5299 15.2804 50.0685 16.9597 49.9735L45.824 48.2942C47.5033 48.1992 47.6934 47.1853 47.6934 45.9813V18.5427C47.6934 17.3387 47.2181 16.6734 46.2042 16.7684L16.0409 18.5427C14.9319 18.6378 14.5517 19.2081 14.5517 20.4121ZM43.0358 21.9013C43.2259 22.7251 43.0358 23.5805 42.212 23.6756L40.8179 23.9607V44.3654C39.6139 44.9991 38.505 45.3793 37.5544 45.3793C36.0653 45.3793 35.6851 44.904 34.5761 43.5099L25.4828 29.2203V43.0346L28.366 43.6683C28.366 43.6683 28.366 45.3476 26.0531 45.3476L19.6529 45.7278C19.4628 45.3476 19.6529 44.4287 20.2865 44.2386L21.9658 43.7634V25.5133L19.6529 25.3232C19.4628 24.4994 19.938 23.2954 21.2371 23.2003L28.1125 22.7251L37.5861 37.1731V24.4043L35.1781 24.1192C34.988 23.1053 35.7484 22.3449 36.6673 22.2498L43.0358 21.9013ZM7.96139 7.9919L34.4177 6.05917C37.6495 5.77401 38.505 5.96412 40.5328 7.45327L48.9608 13.3782C50.3549 14.3921 50.8301 14.6773 50.8301 15.7862V48.3259C50.8301 50.3537 50.1014 51.5577 47.5033 51.7478L16.8013 53.6172C14.8369 53.7122 13.918 53.4271 12.9041 52.128L6.66234 44.0485C5.55339 42.5594 5.07812 41.4504 5.07812 40.1514V11.2237C5.07812 9.54443 5.83855 8.18201 7.96139 7.9919Z" fill="black"/>
</svg>
